<svg xmlns="http://www.w3.org/2000/svg" xmlns:xlink="http://www.w3.org/1999/xlink" id="Form_templates" width="17.992" height="14.137" x="0" style="enable-background:new 0 0 17.992 14.137" y="0" version="1.1" viewBox="0 0 17.992 14.137" xml:space="preserve"><style type="text/css">.st0{fill:#5b606b}</style><g><path d="M16.275,4.357c-1.566,1.084-3.143,2.169-4.698,3.264c-0.653,0.451-1.758,1.375-2.57,1.375H8.996H8.985 c-0.812,0-1.917-0.924-2.57-1.375c-1.556-1.095-3.132-2.18-4.688-3.264C1.015,3.875,0,2.741,0,1.827C0,0.844,0.532,0,1.606,0 h14.779c0.873,0,1.606,0.723,1.606,1.606C17.992,2.73,17.159,3.745,16.275,4.357z M17.992,12.53c0,0.884-0.723,1.606-1.606,1.606 H1.606C0.723,14.137,0,13.414,0,12.53V4.559C0.302,4.89,0.643,5.181,1.015,5.432c1.666,1.135,3.354,2.27,4.989,3.464 c0.844,0.622,1.888,1.386,2.981,1.386h0.011h0.011c1.094,0,2.138-0.764,2.981-1.386c1.636-1.185,3.323-2.329,5-3.464 c0.361-0.251,0.702-0.542,1.004-0.873V12.53z" class="st0"/></g></svg>