<svg xmlns="http://www.w3.org/2000/svg" xmlns:xlink="http://www.w3.org/1999/xlink" id="Alerts" x="0" y="0" version="1.1" viewBox="0 0 40.05 34.33" xml:space="preserve" style="enable-background:new 0 0 40.05 34.33"><style type="text/css">.st0{fill:#5b606b}</style><g><path d="M40.05,17.88H0V9.3c0-1.97,1.61-3.58,3.58-3.58h7.87V2.15C11.44,0.96,12.4,0,13.59,0h12.87 c1.18,0,2.15,0.96,2.15,2.15v3.58h7.87c1.97,0,3.58,1.61,3.58,3.58V17.88z M40.05,30.75c0,1.97-1.61,3.58-3.58,3.58H3.58 C1.61,34.33,0,32.72,0,30.75V20.03h15.02v3.58c0,0.78,0.65,1.43,1.43,1.43h7.15c0.78,0,1.43-0.65,1.43-1.43v-3.58h15.02V30.75z M25.75,5.72V2.86H14.3v2.86H25.75z M22.89,22.89h-5.72v-2.86h5.72V22.89z" class="st0"/></g></svg>