<svg xmlns="http://www.w3.org/2000/svg" xmlns:xlink="http://www.w3.org/1999/xlink" id="Alerts" x="0" y="0" version="1.1" viewBox="0 0 52.3 41.62" xml:space="preserve" style="enable-background:new 0 0 52.3 41.62"><style type="text/css">.st0{fill:#5b606b}</style><g><path d="M48.53,21.59H3.19v-9.72c0-2.23,1.82-4.05,4.05-4.05h8.91V3.77c0-1.34,1.09-2.43,2.43-2.43h14.57 c1.34,0,2.43,1.09,2.43,2.43v4.05h8.91c2.23,0,4.05,1.82,4.05,4.05V21.59z M48.53,36.16c0,2.23-1.82,4.05-4.05,4.05H7.24 c-2.23,0-4.05-1.82-4.05-4.05V24.02h17v4.05c0,0.89,0.73,1.62,1.62,1.62h8.1c0.89,0,1.62-0.73,1.62-1.62v-4.05h17V36.16z M32.34,7.82V4.58H19.38v3.24H32.34z M29.1,27.26h-6.48v-3.24h6.48V27.26z" class="st0"/></g></svg>