<svg xmlns="http://www.w3.org/2000/svg" xmlns:xlink="http://www.w3.org/1999/xlink" id="Form_templates" x="0" y="0" version="1.1" viewBox="0 0 42.9 32.4" xml:space="preserve" style="enable-background:new 0 0 42.9 32.4"><style type="text/css">.st0{fill:#e0f3f8}.st1{fill:#00a6d2}</style><rect width="11.2" height="1.2" y="15.6" class="st0"/><circle cx="26.7" cy="16.2" r="16.2" class="st1"/><g><path d="M26.7,25.9c-5.4,0-9.7-4.4-9.7-9.7c0-5.4,4.4-9.7,9.7-9.7s9.7,4.4,9.7,9.7C36.4,21.5,32.1,25.9,26.7,25.9z M27,9.7c-2.1,0-3.6,0.9-4.7,2.7c-0.1,0.2-0.1,0.4,0.1,0.5l1.7,1.3c0.1,0.1,0.2,0.1,0.2,0.1c0.1,0,0.2-0.1,0.3-0.2 c0.6-0.8,0.8-1,1.1-1.2c0.2-0.2,0.6-0.3,1.1-0.3c0.8,0,1.6,0.5,1.6,1.1c0,0.7-0.3,1-1.1,1.3c-0.9,0.4-2.1,1.5-2.1,2.7v0.5 c0,0.2,0.2,0.4,0.4,0.4h2.4c0.2,0,0.4-0.2,0.4-0.4c0-0.3,0.4-0.9,1-1.3c1-0.5,2.3-1.3,2.3-3.2C31.6,11.4,29.2,9.7,27,9.7z M28.3,19.8c0-0.2-0.2-0.4-0.4-0.4h-2.4c-0.2,0-0.4,0.2-0.4,0.4v2.4c0,0.2,0.2,0.4,0.4,0.4h2.4c0.2,0,0.4-0.2,0.4-0.4V19.8z" class="st0"/></g></svg>