<svg xmlns="http://www.w3.org/2000/svg" xmlns:xlink="http://www.w3.org/1999/xlink" id="Alerts" x="0" y="0" version="1.1" viewBox="0 0 79.52 123.8" xml:space="preserve" style="enable-background:new 0 0 79.52 123.8"><style type="text/css">.st0{fill:#fff}.st1{fill:#5b606b}.st2{fill:#bccad8}.st3{fill:#47a362}</style><g><g><path d="M76.45,1.52H3.07c-0.85,0-1.55,0.69-1.55,1.55v117.67c0,0.85,0.69,1.55,1.55,1.55h73.39 c0.85,0,1.55-0.69,1.55-1.55V3.07C78,2.21,77.31,1.52,76.45,1.52z" class="st0"/><path d="M74.87,123.8H4.65c-2.57,0-4.65-2.09-4.65-4.65V4.65C0,2.09,2.09,0,4.65,0h70.21c2.57,0,4.65,2.09,4.65,4.65 v114.49C79.52,121.71,77.43,123.8,74.87,123.8z M4.65,3.04c-0.89,0-1.61,0.73-1.61,1.62v114.49c0,0.89,0.72,1.62,1.61,1.62h70.21 c0.89,0,1.62-0.73,1.62-1.62V4.65c0-0.89-0.73-1.62-1.62-1.62H4.65z" class="st1"/></g><g><rect width="38.1" height="3.8" x="20.71" y="30.45" class="st2"/><rect width="38.1" height="3.8" x="20.71" y="36.82" class="st2"/><rect width="38.1" height="3.8" x="20.71" y="24.08" class="st2"/></g><g><rect width="38.1" height="3.8" x="20.71" y="60.58" class="st2"/><rect width="38.1" height="3.8" x="20.71" y="66.95" class="st2"/><rect width="38.1" height="3.8" x="20.71" y="54.2" class="st2"/></g><g><rect width="38.1" height="3.8" x="20.71" y="90.25" class="st2"/><rect width="38.1" height="3.8" x="20.71" y="96.62" class="st2"/><rect width="38.1" height="3.8" x="20.71" y="83.87" class="st2"/></g><rect width="5.08" height="3.8" x="53.73" y="30.45" class="st3"/><rect width="5.08" height="3.8" x="53.73" y="36.82" class="st3"/><rect width="5.08" height="3.8" x="53.73" y="24.08" class="st3"/><rect width="5.08" height="3.8" x="53.73" y="60.58" class="st3"/><rect width="5.08" height="3.8" x="53.73" y="66.95" class="st3"/><rect width="5.08" height="3.8" x="53.73" y="54.2" class="st3"/><rect width="5.08" height="3.8" x="53.73" y="90.25" class="st3"/><rect width="5.08" height="3.8" x="53.73" y="96.62" class="st3"/><rect width="5.08" height="3.8" x="53.73" y="83.87" class="st3"/></g></svg>