<svg xmlns="http://www.w3.org/2000/svg" xmlns:xlink="http://www.w3.org/1999/xlink" id="Alerts" width="39.26" height="61.12" x="0" style="enable-background:new 0 0 39.26 61.12" y="0" version="1.0" viewBox="0 0 39.26 61.12" xml:space="preserve"><style type="text/css">.st0{fill:#fff}.st1{fill:#5b606b}.st2{fill:#bccad8}.st3{fill:#47a362}.st4{fill:#e21c3c}</style><g><path d="M36.96,0.75H2.3c-0.85,0-1.55,0.69-1.55,1.55v56.52c0,0.85,0.69,1.55,1.55,1.55h34.66 c0.85,0,1.55-0.69,1.55-1.55V2.3C38.51,1.44,37.81,0.75,36.96,0.75z" class="st0"/><path d="M36.96,61.12H2.3c-1.27,0-2.3-1.03-2.3-2.3V2.3C0,1.03,1.03,0,2.3,0h34.66c1.27,0,2.3,1.03,2.3,2.3v56.52 C39.26,60.09,38.23,61.12,36.96,61.12z M2.3,1.5c-0.44,0-0.8,0.36-0.8,0.8v56.52c0,0.44,0.36,0.8,0.8,0.8h34.66 c0.44,0,0.8-0.36,0.8-0.8V2.3c0-0.44-0.36-0.8-0.8-0.8H2.3z" class="st1"/></g><g><rect width="18.81" height="1.88" x="10.22" y="15.03" class="st2"/><rect width="18.81" height="1.88" x="10.22" y="18.18" class="st2"/><rect width="18.81" height="1.88" x="10.22" y="11.88" class="st2"/></g><rect width="18.81" height="1.88" x="10.22" y="29.9" class="st2"/><rect width="18.81" height="1.88" x="10.22" y="33.05" class="st2"/><rect width="18.81" height="1.88" x="10.22" y="26.76" class="st2"/><g><rect width="18.81" height="1.88" x="10.22" y="44.55" class="st2"/><rect width="18.81" height="1.88" x="10.22" y="47.7" class="st2"/><rect width="18.81" height="1.88" x="10.22" y="41.4" class="st2"/></g><rect width="2.51" height="1.88" x="26.52" y="15.03" class="st3"/><rect width="2.51" height="1.88" x="26.52" y="18.18" class="st3"/><rect width="2.51" height="1.88" x="26.52" y="11.88" class="st3"/><rect width="2.51" height="1.88" x="26.52" y="29.9" class="st4"/><rect width="2.51" height="1.88" x="26.52" y="33.05" class="st4"/><rect width="2.51" height="1.88" x="26.52" y="26.76" class="st4"/><rect width="2.51" height="1.88" x="26.52" y="44.55" class="st3"/><rect width="2.51" height="1.88" x="26.52" y="47.7" class="st3"/><rect width="2.51" height="1.88" x="26.52" y="41.4" class="st3"/></svg>