<svg xmlns="http://www.w3.org/2000/svg" xmlns:xlink="http://www.w3.org/1999/xlink" id="Alerts" x="0" y="0" version="1.1" viewBox="0 0 102.52 128.23" xml:space="preserve" style="enable-background:new 0 0 102.52 128.23"><style type="text/css">.st0{fill:#fff}.st1{fill:#5b606b}.st2{fill:#bccad8}.st3{fill:#47a362}</style><g><g><path d="M99.14,60.63H22.18c-0.85,0-1.55,0.69-1.55,1.55v62.99c0,0.85,0.69,1.55,1.55,1.55h76.96 c0.85,0,1.55-0.69,1.55-1.55V62.18C100.69,61.32,99.99,60.63,99.14,60.63z" class="st0"/><path d="M97.41,128.3h-73.5c-2.69,0-4.87-2.18-4.87-4.87V63.91c0-2.69,2.18-4.87,4.87-4.87h73.5 c2.69,0,4.87,2.18,4.87,4.87v59.53C102.28,126.12,100.09,128.3,97.41,128.3z M23.91,62.22c-0.93,0-1.69,0.76-1.69,1.69v59.53 c0,0.93,0.76,1.69,1.69,1.69h73.5c0.93,0,1.69-0.76,1.69-1.69V63.91c0-0.93-0.76-1.69-1.69-1.69H23.91z" class="st1"/></g><g><rect width="39.88" height="3.98" x="40.72" y="92.57" class="st2"/><rect width="39.88" height="3.98" x="40.72" y="99.24" class="st2"/><rect width="39.88" height="3.98" x="40.72" y="85.9" class="st2"/></g><g><path d="M89.82,31.23H12.86c-0.85,0-1.55,0.69-1.55,1.55v62.99c0,0.85,0.69,1.55,1.55,1.55h76.96 c0.85,0,1.55-0.69,1.55-1.55V32.78C91.37,31.92,90.68,31.23,89.82,31.23z" class="st0"/><path d="M88.09,98.91h-73.5c-2.69,0-4.87-2.18-4.87-4.87V34.51c0-2.69,2.19-4.87,4.87-4.87h73.5 c2.69,0,4.87,2.18,4.87,4.87v59.53C92.96,96.72,90.78,98.91,88.09,98.91z M14.59,32.82c-0.93,0-1.69,0.76-1.69,1.69v59.53 c0,0.93,0.76,1.69,1.69,1.69h73.5c0.93,0,1.69-0.76,1.69-1.69V34.51c0-0.93-0.76-1.69-1.69-1.69H14.59z" class="st1"/></g><g><rect width="39.88" height="3.98" x="31.4" y="63.17" class="st2"/><rect width="39.88" height="3.98" x="31.4" y="69.85" class="st2"/><rect width="39.88" height="3.98" x="31.4" y="56.5" class="st2"/></g><g><path d="M79.99,1.84H3.03c-0.85,0-1.55,0.69-1.55,1.55v62.99c0,0.85,0.69,1.55,1.55,1.55h76.96 c0.85,0,1.55-0.69,1.55-1.55V3.38C81.54,2.53,80.85,1.84,79.99,1.84z" class="st0"/><path d="M78.26,69.51H4.77c-2.69,0-4.87-2.19-4.87-4.87V5.12c0-2.69,2.19-4.87,4.87-4.87h73.49 c2.69,0,4.87,2.19,4.87,4.87v59.52C83.13,67.33,80.95,69.51,78.26,69.51z M4.77,3.43c-0.93,0-1.69,0.76-1.69,1.69v59.52 c0,0.93,0.76,1.69,1.69,1.69h73.49c0.93,0,1.69-0.76,1.69-1.69V5.12c0-0.93-0.76-1.69-1.69-1.69H4.77z" class="st1"/></g><g><rect width="39.88" height="3.98" x="21.57" y="33.78" class="st2"/><rect width="39.88" height="3.98" x="21.57" y="40.45" class="st2"/><rect width="39.88" height="3.98" x="21.57" y="27.1" class="st2"/></g><rect width="5.32" height="3.98" x="56.13" y="33.78" class="st3"/><rect width="5.32" height="3.98" x="56.13" y="40.45" class="st3"/><rect width="5.32" height="3.98" x="65.96" y="69.85" class="st3"/><rect width="5.32" height="3.98" x="56.13" y="27.1" class="st3"/><rect width="5.32" height="3.98" x="75.28" y="99.24" class="st3"/></g></svg>