<svg xmlns="http://www.w3.org/2000/svg" xmlns:xlink="http://www.w3.org/1999/xlink" id="Alerts" x="0" y="0" version="1.1" viewBox="0 0 79.68 124.06" xml:space="preserve" style="enable-background:new 0 0 79.68 124.06"><style type="text/css">.st0{fill:#fff}.st1{fill:#5b606b}.st2{fill:#bccad8}.st3{fill:#e21c3c}</style><g><g><path d="M76.61,1.52H3.07c-0.85,0-1.55,0.69-1.55,1.55v117.92c0,0.85,0.69,1.55,1.55,1.55h73.54 c0.85,0,1.55-0.69,1.55-1.55V3.07C78.16,2.22,77.47,1.52,76.61,1.52z" class="st0"/><path d="M75.02,124.06H4.66c-2.57,0-4.66-2.09-4.66-4.66V4.66C0,2.09,2.09,0,4.66,0h70.36c2.57,0,4.66,2.09,4.66,4.66 v114.73C79.68,121.96,77.59,124.06,75.02,124.06z M4.66,3.04c-0.89,0-1.62,0.73-1.62,1.62v114.73c0,0.89,0.73,1.62,1.62,1.62 h70.36c0.89,0,1.62-0.73,1.62-1.62V4.66c0-0.89-0.73-1.62-1.62-1.62H4.66z" class="st1"/></g><g><rect width="38.18" height="3.81" x="20.75" y="30.51" class="st2"/><rect width="38.18" height="3.81" x="20.75" y="36.9" class="st2"/><rect width="38.18" height="3.81" x="20.75" y="24.13" class="st2"/></g><g><rect width="38.18" height="3.81" x="20.75" y="60.7" class="st2"/><rect width="38.18" height="3.81" x="20.75" y="67.09" class="st2"/><rect width="38.18" height="3.81" x="20.75" y="54.31" class="st2"/></g><g><rect width="38.18" height="3.81" x="20.75" y="90.43" class="st2"/><rect width="38.18" height="3.81" x="20.75" y="96.82" class="st2"/><rect width="38.18" height="3.81" x="20.75" y="84.04" class="st2"/></g><rect width="5.09" height="3.81" x="53.84" y="30.51" class="st3"/><rect width="5.09" height="3.81" x="53.84" y="36.9" class="st2"/><rect width="5.09" height="3.81" x="53.84" y="24.13" class="st2"/><rect width="5.09" height="3.81" x="53.84" y="60.7" class="st2"/><rect width="5.09" height="3.81" x="53.84" y="67.09" class="st2"/><rect width="5.09" height="3.81" x="53.84" y="54.31" class="st3"/><rect width="5.09" height="3.81" x="53.84" y="90.43" class="st2"/><rect width="5.09" height="3.81" x="53.84" y="96.82" class="st3"/><rect width="5.09" height="3.81" x="53.84" y="84.04" class="st2"/></g></svg>