<svg xmlns="http://www.w3.org/2000/svg" xmlns:xlink="http://www.w3.org/1999/xlink" id="Form_controls" x="0" y="0" version="1.1" viewBox="0 0 14 14.33" xml:space="preserve" style="enable-background:new 0 0 14 14.33"><style type="text/css">.st0{enable-background:new}.st1{fill:#fff}</style><g class="st0"><path d="M12.84,5.27l-5.66,5.66l-1.06,1.06c-0.14,0.14-0.34,0.22-0.53,0.22s-0.39-0.08-0.53-0.22l-1.06-1.06L1.16,8.1 C1.02,7.96,0.94,7.77,0.94,7.57s0.08-0.39,0.22-0.53l1.06-1.06c0.14-0.14,0.34-0.22,0.53-0.22s0.39,0.08,0.53,0.22l2.3,2.3 l5.13-5.13c0.14-0.14,0.34-0.22,0.53-0.22s0.39,0.08,0.53,0.22l1.06,1.06c0.14,0.14,0.22,0.34,0.22,0.53S12.98,5.13,12.84,5.27z" class="st1"/></g></svg>