<svg xmlns="http://www.w3.org/2000/svg" xmlns:xlink="http://www.w3.org/1999/xlink" id="Alerts" x="0" y="0" version="1.1" viewBox="0 0 15.9 16" xml:space="preserve" style="enable-background:new 0 0 15.9 16"><style type="text/css">.st0{fill:#fff}.st1{enable-background:new}.st2{fill:#e21c3c}</style><ellipse cx="7.9" cy="8.2" class="st0" rx="4.3" ry="6.3"/><g class="st1"><path d="M15.9,8c0,4.4-3.6,8-7.9,8S0,12.4,0,8s3.6-8,7.9-8S15.9,3.6,15.9,8z M9.4,3c0-0.2,0-0.3-0.3-0.3H6.8 C6.5,2.7,6.5,2.8,6.5,3l0.2,6.5c0,0.1,0.2,0.3,0.4,0.3h1.9c0.2,0,0.3-0.1,0.4-0.3L9.4,3z M9.2,11c0-0.2-0.1-0.3-0.3-0.3H7 c-0.2,0-0.3,0.2-0.3,0.3v2c0,0.2,0.2,0.3,0.3,0.3h2c0.2,0,0.3-0.2,0.3-0.3V11z" class="st2"/></g></svg>